<svg id="logo_svg" data-name="logo svg" xmlns="http://www.w3.org/2000/svg" width="200" height="175" viewBox="0 0 200 175">
  <metadata><?xpacket begin="﻿" id="W5M0MpCehiHzreSzNTczkc9d"?>
<x:xmpmeta xmlns:x="adobe:ns:meta/" x:xmptk="Adobe XMP Core 5.6-c142 79.160924, 2017/07/13-01:06:39        ">
   <rdf:RDF xmlns:rdf="http://www.w3.org/1999/02/22-rdf-syntax-ns#">
      <rdf:Description rdf:about=""/>
   </rdf:RDF>
</x:xmpmeta>
                                                                                                    
                                                                                                    
                                                                                                    
                                                                                                    
                                                                                                    
                                                                                                    
                                                                                                    
                                                                                                    
                                                                                                    
                                                                                                    
                                                                                                    
                                                                                                    
                                                                                                    
                                                                                                    
                                                                                                    
                                                                                                    
                                                                                                    
                                                                                                    
                                                                                                    
                                                                                                    
                           
<?xpacket end="w"?></metadata>
<defs>
    <style>
      .cls-1 {
        fill: #b26076;
      }

      .cls-1, .cls-2, .cls-3, .cls-4 {
        fill-rule: evenodd;
      }

      .cls-2 {
        fill: #ff8cac;
      }

      .cls-3 {
        fill: #f7799c;
      }

      .cls-4 {
        fill: #fff;
      }
    </style>
  </defs>
  <g id="icon">
    <path id="shadow" class="cls-1" d="M189.269,74.581c-3.469,25.1-35.311,28.4-41.8,28.817a23.766,23.766,0,0,1-7.265-3.128s34.108-3.121,41.94-29.58c7.028-23.742,10.517-51.4-4.18-53.959a22.458,22.458,0,0,0-6.951-.028c4.242-1.857,7.937-2.629,10.982-2.1C196.691,17.167,193.134,46.616,189.269,74.581Zm-47.114,81.967c14.778,0,28.506-18.762,28.506-31.087,0-7.7-4.41-13.557-10.87-17.36a45.129,45.129,0,0,0-12.082-4.645c3.283,0.068,11.67.648,18.349,4.581,6.459,3.8,10.02,11.822,10.019,19.52,0,12.325-15.456,33.441-30.235,33.441-11.409,0-20.275-5.524-26.809-13.68A33.64,33.64,0,0,0,142.155,156.548ZM10.713,74.581c3.469,25.1,35.311,28.4,41.8,28.817a23.766,23.766,0,0,0,7.264-3.128s-34.108-3.121-41.94-29.58c-7.028-23.742-10.517-51.4,4.181-53.959a22.458,22.458,0,0,1,6.951-.028c-4.242-1.857-7.937-2.629-10.983-2.1C3.291,17.167,6.848,46.616,10.713,74.581Zm47.114,81.967c-14.779,0-28.506-18.762-28.506-31.087,0-7.7,4.41-13.557,10.869-17.36a45.134,45.134,0,0,1,12.083-4.645c-3.283.068-11.67,0.648-18.349,4.581-6.459,3.8-10.02,11.822-10.019,19.52C23.9,139.882,39.36,161,54.139,161c11.41,0,20.275-5.524,26.809-13.68A33.638,33.638,0,0,1,57.827,156.548Z"/>
    <path id="main" class="cls-2" d="M141.842,157.969c14.779,0,30.176-21.087,30.176-33.412,0-7.7-3.5-15.716-9.96-19.52-8.5-5-19.761-4.58-19.761-4.58s39.107-.909,42.972-28.876,7.422-54.863-7.276-57.426c-8.072-1.408-20.695,5.768-36.026,18.674-20.238,17.037-37.184,50.348-37.184,50.348s-5.691,8.673-4.651,25.01S114.675,157.969,141.842,157.969Zm-83.7,0c-14.779,0-30.176-21.087-30.176-33.412,0-7.7,3.5-15.716,9.96-19.52,8.5-5,19.761-4.58,19.761-4.58s-39.107-.909-42.972-28.876S7.291,16.718,21.988,14.155c8.072-1.408,20.7,5.768,36.026,18.674C78.253,49.866,95.2,83.177,95.2,83.177s5.69,8.673,4.651,25.01S85.306,157.969,58.139,157.969Z"/>
    <path id="lights" class="cls-3" d="M105.921,83.981a8.808,8.808,0,0,1,9.065,8.526,8.584,8.584,0,0,1-6.13,8.06c0.083,0.921.135,1.757,0.135,2.428,0,7.866,7.013,7.535,7.013,17.775,0,4.323-4.486,8.652-6.765,14.77-5.216-9.6-7.944-20.177-8.4-27.353-0.841-13.206,2.252-21.4,3.47-24.055A9.594,9.594,0,0,1,105.921,83.981Zm79.348-12.4c-2.646,19.144-21.8,25.607-33.627,27.781,11.429-3.131,25.451-10.247,27.686-26.424,3.865-27.965,8.61-52.319-6.087-54.882-8.072-1.408-20.7,6.619-36.026,19.525-1.01.85-2.009,1.75-3,2.675a90.993,90.993,0,0,1,7.752-7.428c15.331-12.906,27.954-20.082,36.026-18.674C192.691,16.718,189.134,43.616,185.269,71.581Zm-18.21,53.145a21.553,21.553,0,0,0-10.941-18.33c-8.2-4.83-18.972-4.6-19.717-4.583a67.47,67.47,0,0,0,9.965-1.221c4.05,0.32,10.406,1.332,15.692,4.445,6.459,3.8,10.02,11.822,10.019,19.52,0,9.408-9.007,24.2-19.843,30.684C160.828,146.515,167.059,132.715,167.059,124.726ZM136.4,101.813l-0.044,0ZM94.061,83.981A8.808,8.808,0,0,0,85,92.507a8.583,8.583,0,0,0,6.13,8.06c-0.083.921-.135,1.757-0.135,2.428,0,7.866-7.013,7.535-7.013,17.775,0,4.323,4.486,8.652,6.766,14.77,5.216-9.6,7.944-20.177,8.4-27.353,0.84-13.206-2.253-21.4-3.47-24.055A9.589,9.589,0,0,0,94.061,83.981Zm-79.348-12.4c2.646,19.144,21.8,25.607,33.627,27.781C36.911,96.231,22.889,89.116,20.653,72.939c-3.865-27.965-8.61-52.319,6.087-54.882,8.072-1.408,20.7,6.619,36.026,19.525,1.01,0.85,2.008,1.75,3,2.675a91.043,91.043,0,0,0-7.752-7.428C42.684,19.923,30.06,12.747,21.988,14.155,7.291,16.718,10.848,43.616,14.713,71.581Zm18.21,53.145A21.552,21.552,0,0,1,43.864,106.4c8.2-4.83,18.972-4.6,19.717-4.583a67.47,67.47,0,0,1-9.965-1.221c-4.05.32-10.406,1.332-15.692,4.445-6.459,3.8-10.02,11.822-10.019,19.52,0,9.408,9.008,24.2,19.843,30.684C39.153,146.515,32.923,132.715,32.923,124.726Zm30.658-22.913,0.044,0Z"/>
    <path id="girl" class="cls-4" d="M106.208,98.429a29.613,29.613,0,0,0-.616,4.879c0,7.06,6.594,9.266,6.594,16.8,0,3.411-3.8,6.826-5.317,11.863-3.447,11.419-6.683,25.389-6.683,25.389l-0.006-17.929-0.006,17.929s-3.237-13.97-6.684-25.389c-1.521-5.037-5.316-8.452-5.316-11.863,0-7.539,6.594-9.745,6.594-16.8a29.634,29.634,0,0,0-.616-4.877,6.028,6.028,0,1,1,.316-12.052,6.227,6.227,0,0,1,5.679,3.591,6.249,6.249,0,0,1,5.7-3.591A6.028,6.028,0,1,1,106.208,98.429Zm-5.974-13.106c-2.633,0-4.393-2.915-4.393-6.512s1.761-6.58,4.393-6.58,4.326,2.983,4.326,6.58S102.867,85.323,100.234,85.323Z"/>
  </g>
</svg>
